<?xml version="1.0" encoding="UTF-8" standalone="no"?><!DOCTYPE svg PUBLIC "-//W3C//DTD SVG 1.1//EN" "http://www.w3.org/Graphics/SVG/1.1/DTD/svg11.dtd"><svg width="100%" height="100%" viewBox="0 0 900 400" version="1.1" xmlns="http://www.w3.org/2000/svg" xmlns:xlink="http://www.w3.org/1999/xlink" xml:space="preserve" xmlns:serif="http://www.serif.com/" style="fill-rule:evenodd;clip-rule:evenodd;stroke-linecap:round;stroke-miterlimit:10;"><rect id="hr" x="56.06" y="334.281" width="787.881" height="0.786" style="fill:#444;"/><text id="slogan-pdf" x="303.372px" y="365.969px" style="font-family:'OpenSansLight-Italic', 'Open Sans', sans-serif;font-weight:300;font-style:italic;font-size:18px;fill:#444;">pdf gener<tspan x="374.933px 384.891px " y="365.969px 365.969px ">at</tspan>ion made easy and smooth</text><g><clipPath id="_clip1"><rect x="502.322" y="14.323" width="352.193" height="320.745"/></clipPath><g clip-path="url(#_clip1)"><g opacity="0.1"><path d="M854.515,281.454c0,33.719 -78.841,61.054 -176.097,61.054c-97.255,0 -176.096,-27.335 -176.096,-61.054c0,-33.719 78.841,-61.054 176.096,-61.054c97.256,0 176.097,27.335 176.097,61.054" style="fill:#020202;fill-rule:nonzero;"/></g><path d="M599.857,173.137c0.204,-4.51 -1.505,-9.075 -4.621,-12.342c-0.955,-1.002 -2.254,-1.945 -3.606,-1.651c-1.171,0.255 -1.983,1.421 -2.14,2.61c-0.156,1.188 0.222,2.384 0.719,3.475c1.458,3.205 4.006,5.901 7.123,7.539c0.681,0.358 1.454,0.674 2.201,0.492c0.747,-0.182 1.342,-1.085 0.943,-1.742c-0.138,-0.227 -0.363,-0.384 -0.582,-0.534c-1.705,-1.171 -3.539,-2.386 -5.608,-2.443c-2.686,-0.072 -5.235,2.16 -5.517,4.833c-0.061,0.583 -0.021,1.197 0.258,1.712c0.484,0.894 1.598,1.293 2.612,1.225c1.014,-0.069 1.959,-0.517 2.875,-0.957c1.316,-0.633 2.631,-1.266 3.947,-1.899c0.418,-0.201 0.872,-0.439 1.041,-0.872c0.242,-0.619 -0.268,-1.325 -0.896,-1.542c-0.628,-0.217 -1.316,-0.085 -1.967,0.05c-0.505,1.381 0.763,3.073 2.23,2.977c1.467,-0.096 2.503,-1.94 1.822,-3.243c-0.902,-0.77 -2.374,0.115 -2.741,1.244c-0.367,1.128 -0.083,2.353 -0.135,3.539c-0.15,3.364 -2.904,5.946 -4.449,8.939c-2.123,4.112 -1.843,9.363 0.705,13.228" style="fill:none;fill-rule:nonzero;stroke:#e2574c;stroke-width:1.86px;"/><path d="M768.633,309.352c0,6.608 -25.986,11.966 -58.041,11.966c-32.056,0 -58.042,-5.358 -58.042,-11.966l0,-7.306l116.083,0l0,7.306Z" style="fill:#c4c4c4;fill-rule:nonzero;"/><g opacity="0.1"><path d="M768.633,309.352c0,6.608 -25.986,11.966 -58.041,11.966c-32.056,0 -58.042,-5.358 -58.042,-11.966l0,-7.306l116.083,0l0,7.306Z" style="fill:#020202;fill-rule:nonzero;"/></g><path d="M768.633,302.046c0,6.608 -25.986,11.966 -58.041,11.966c-32.056,0 -58.042,-5.358 -58.042,-11.966c0,-6.609 25.986,-11.967 58.042,-11.967c32.055,0 58.041,5.358 58.041,11.967" style="fill:#c4c4c4;fill-rule:nonzero;"/><path d="M639.68,291.699c0,2.931 -11.523,5.306 -25.738,5.306c-14.214,0 -25.738,-2.375 -25.738,-5.306l0,-3.239l51.476,0l0,3.239Z" style="fill:#c4c4c4;fill-rule:nonzero;"/><g opacity="0.1"><path d="M639.68,291.699c0,2.931 -11.523,5.306 -25.738,5.306c-14.214,0 -25.738,-2.375 -25.738,-5.306l0,-3.239l51.476,0l0,3.239Z" style="fill:#020202;fill-rule:nonzero;"/></g><path d="M639.68,288.46c0,2.93 -11.523,5.306 -25.738,5.306c-14.214,0 -25.738,-2.376 -25.738,-5.306c0,-2.931 11.524,-5.307 25.738,-5.307c14.215,0 25.738,2.376 25.738,5.307" style="fill:#c4c4c4;fill-rule:nonzero;"/><path d="M701.002,296.49c0.036,0.462 0.093,0.94 0.329,1.34c0.278,0.47 0.769,0.772 1.264,1.003c5.177,2.413 11.131,-1.29 16.837,-1.059c2.354,0.096 4.624,0.868 6.95,1.236c1.979,0.312 4.349,0.586 6.343,0.291c1.088,-0.163 3.394,-0.422 4.209,-1.175c0.742,-0.686 0.738,-1.84 0.678,-2.849c-0.038,-0.653 -0.08,-1.322 -0.346,-1.92c-0.729,-1.63 -2.761,-2.117 -4.513,-2.458c-3.388,-0.661 -7.253,-1.287 -10.418,-2.706c-2.861,-1.283 -5.386,-3.293 -8.412,-4.365c-9.191,-3.255 -13.562,4.327 -12.921,12.662" style="fill:#e2574c;fill-rule:nonzero;stroke:#e2574c;stroke-width:1px;stroke-linecap:butt;stroke-linejoin:round;stroke-miterlimit:2;"/><path d="M737.613,295.277c0.06,1.009 0.063,2.163 -0.679,2.849c-0.814,0.753 -3.121,1.012 -4.209,1.174c-1.994,0.296 -4.363,0.022 -6.342,-0.291c-2.327,-0.367 -4.596,-1.139 -6.951,-1.235c-5.706,-0.231 -11.66,3.472 -16.837,1.059c-0.495,-0.231 -0.985,-0.534 -1.263,-1.003c-0.237,-0.4 -0.293,-0.878 -0.329,-1.34c5.539,0.885 11.522,-0.674 17.13,-0.514c4.595,0.131 9.087,1.52 13.684,1.638c2.053,0.054 4.5,-0.744 5.796,-2.337" style="fill:#292640;fill-rule:nonzero;"/><path d="M704.39,275.903c0.36,3.149 0.502,6.323 0.424,9.492c-0.006,0.232 -0.007,0.482 0.132,0.666c0.117,0.155 0.311,0.23 0.496,0.291c2.489,0.817 5.357,0.37 7.48,-1.165c0.138,-0.098 0.277,-0.208 0.353,-0.359c0.076,-0.152 0.081,-0.328 0.08,-0.498c-0.023,-2.828 -1.24,-5.599 -0.912,-8.407l-8.053,-0.02Z" style="fill:#fcac0d;fill-rule:nonzero;"/><path d="M613.942,217.26l0,71.2" style="fill:none;fill-rule:nonzero;stroke:#c4c4c4;stroke-width:4.65px;stroke-linecap:butt;"/><g opacity="0.2"><path d="M613.942,217.26l0,71.2" style="fill:none;fill-rule:nonzero;stroke:#020202;stroke-width:4.65px;stroke-linecap:butt;"/></g><path d="M640.305,216.279c0,2.78 -10.931,5.033 -24.415,5.033c-13.483,0 -24.414,-2.253 -24.414,-5.033l0,-3.073l48.829,0l0,3.073Z" style="fill:#c4c4c4;fill-rule:nonzero;"/><g opacity="0.1"><path d="M640.305,216.279c0,2.78 -10.931,5.033 -24.415,5.033c-13.483,0 -24.414,-2.253 -24.414,-5.033l0,-3.073l48.829,0l0,3.073Z" style="fill:#020202;fill-rule:nonzero;"/></g><path d="M640.305,213.206c0,2.78 -10.931,5.033 -24.415,5.033c-13.483,0 -24.414,-2.253 -24.414,-5.033c0,-2.779 10.931,-5.033 24.414,-5.033c13.484,0 24.415,2.254 24.415,5.033" style="fill:#c4c4c4;fill-rule:nonzero;"/><path d="M698.359,212.347c1.72,0.852 3.471,1.743 4.785,3.141c1.586,1.686 2.387,3.948 3.091,6.154c2.277,7.136 3.988,14.452 5.113,21.858c0.878,5.783 1.395,11.612 1.768,17.446c0.164,2.576 0.581,5.334 0.31,7.902c-0.192,1.825 -1.129,3.007 -0.302,4.984c0.413,0.991 1.184,1.9 1.143,2.973c-0.048,1.238 -1.174,2.163 -2.308,2.663c-2.524,1.112 -5.581,0.918 -7.944,-0.504c-0.296,-0.178 -0.586,-0.379 -0.798,-0.652c-0.39,-0.506 -0.457,-1.183 -0.51,-1.82c-1.024,-12.125 -4.985,-23.296 -7.832,-35.061c-0.83,-3.415 -1.77,-7.026 -4.304,-9.462c-1.614,-1.552 -3.722,-2.465 -5.79,-3.323c-17.179,-7.128 -35.298,-12.776 -50.313,-23.752c-1.449,-1.06 -3.009,-2.461 -2.912,-4.253c0.053,-0.994 0.626,-1.88 1.241,-2.662c8.439,-10.709 18.209,-5.543 28.607,-1.651c12.579,4.71 24.919,10.058 36.955,16.019" style="fill:#292640;fill-rule:nonzero;"/><g opacity="0.2"><path d="M698.359,212.347c1.72,0.852 3.471,1.743 4.785,3.141c1.586,1.686 2.387,3.948 3.091,6.154c2.277,7.136 3.988,14.452 5.113,21.858c0.878,5.783 1.395,11.612 1.768,17.446c0.164,2.576 0.581,5.334 0.31,7.902c-0.192,1.825 -1.129,3.007 -0.302,4.984c0.413,0.991 1.184,1.9 1.143,2.973c-0.048,1.238 -1.174,2.163 -2.308,2.663c-2.524,1.112 -5.581,0.918 -7.944,-0.504c-0.296,-0.178 -0.586,-0.379 -0.798,-0.652c-0.39,-0.506 -0.457,-1.183 -0.51,-1.82c-1.024,-12.125 -4.985,-23.296 -7.832,-35.061c-0.83,-3.415 -1.77,-7.026 -4.304,-9.462c-1.614,-1.552 -3.722,-2.465 -5.79,-3.323c-17.179,-7.128 -35.298,-12.776 -50.313,-23.752c-1.449,-1.06 -3.009,-2.461 -2.912,-4.253c0.053,-0.994 0.626,-1.88 1.241,-2.662c8.439,-10.709 18.209,-5.543 28.607,-1.651c12.579,4.71 24.919,10.058 36.955,16.019" style="fill:#020202;fill-rule:nonzero;"/></g><path d="M636.951,314.824c-0.038,0.722 -0.008,1.475 0.318,2.12c0.466,0.924 1.44,1.459 2.361,1.932c4.854,2.489 9.84,4.796 15.111,6.199c5.272,1.402 10.872,1.873 16.193,0.673c0.13,-0.475 0.168,-0.96 0.13,-1.442c-0.116,-1.443 -0.922,-2.853 -2.001,-3.863c-1.44,-1.347 -3.3,-2.132 -5.107,-2.921c-1.807,-0.788 -3.65,-1.64 -4.999,-3.078c-0.792,-0.844 -1.38,-1.853 -2.072,-2.78c-2.509,-3.356 -6.492,-5.568 -10.666,-5.923c-5.835,-0.498 -8.971,3.415 -9.268,9.083" style="fill:#e2574c;fill-rule:nonzero;stroke:#e2574c;stroke-width:1px;stroke-linecap:butt;stroke-linejoin:round;stroke-miterlimit:2;"/><path d="M671.063,324.307c0.039,0.481 0,0.967 -0.13,1.441c-5.321,1.201 -10.921,0.73 -16.193,-0.672c-5.271,-1.404 -10.257,-3.71 -15.111,-6.2c-0.92,-0.472 -1.895,-1.007 -2.361,-1.931c-0.326,-0.646 -0.355,-1.399 -0.318,-2.12c4.164,3.087 9.151,4.899 14.047,6.603c6.459,2.247 13.392,4.37 20.066,2.879" style="fill:#292640;fill-rule:nonzero;"/><path d="M643.41,296.073c-0.026,3.506 -0.513,7.008 -1.443,10.389c-0.16,0.577 -0.29,1.301 0.169,1.686c0.172,0.145 0.398,0.207 0.616,0.262c2.429,0.61 4.956,0.83 7.453,0.649c-0.012,-3.152 0.637,-6.306 1.894,-9.197l-8.689,-3.789Z" style="fill:#fcac0d;fill-rule:nonzero;"/><path d="M708.643,200.689l0,101.908" style="fill:none;fill-rule:nonzero;stroke:#c4c4c4;stroke-width:4.65px;stroke-linecap:butt;"/><path d="M599.579,196.755c1.411,11.079 8.956,20.543 17.824,27.333c8.869,6.789 19.149,11.438 28.812,17.042c4.879,2.829 0.238,18.991 -0.365,24.185l-3.414,29.39c-0.182,1.57 -0.351,3.231 0.309,4.666c1.506,3.281 6.053,3.397 9.643,3.006c7.297,-19.775 12.607,-40.284 15.821,-61.117c0.362,-2.34 0.695,-4.747 0.182,-7.059c-1.995,-9 -11.845,-18.075 -18.354,-24.068c-5.301,-4.88 -13.546,-12.898 -20.772,-14.503c-8.709,-1.935 -20.69,0.795 -29.686,1.125" style="fill:#292640;fill-rule:nonzero;"/><g opacity="0.1"><path d="M620.958,199.107c4.314,-1.227 8.827,-1.446 13.326,-1.499c-0.765,-0.41 -1.528,-0.787 -2.286,-1.1c-3.998,-0.57 -8.052,-0.751 -12.083,-0.522c-5.682,0.321 -11.364,0.072 -17.048,0.672c-1.108,0.117 -2.28,0.288 -3.146,0.976c0.522,3.303 1.577,6.457 3.052,9.435c3.118,-1.463 6.236,-2.925 9.354,-4.388c2.878,-1.349 5.772,-2.706 8.831,-3.574" style="fill:#020202;fill-rule:nonzero;"/></g><path d="M658.642,130.09c0.488,1.144 0.998,2.279 1.537,3.401c1.199,2.498 1.969,5.192 3.039,7.771c2.248,5.419 4.975,10.673 8.563,15.334c0.723,0.941 1.474,1.948 1.593,3.128c0.191,1.902 -1.137,2.842 -2.266,4.087c-1.188,1.312 -1.997,3.053 -2.952,4.546c-0.883,1.383 -1.919,2.719 -3.318,3.577c-4.936,3.029 -8.503,-2.973 -10.126,-6.819c-1.903,-4.508 -3.806,-9.017 -5.709,-13.525c-2.045,-4.843 -4.461,-9.583 -6.436,-14.386c-0.659,-1.604 -0.751,-3.376 -0.795,-5.109c-0.144,-5.607 0.116,-11.223 0.777,-16.792c0.2,-1.684 0.53,-8.183 3.281,-7.927c0.731,0.068 1.341,0.569 1.87,1.078c4.598,4.419 6.707,10.742 8.968,16.705c0.627,1.655 1.279,3.303 1.974,4.931" style="fill:#fcac0d;fill-rule:nonzero;"/><g opacity="0.1"><path d="M658.642,130.09c0.488,1.144 0.998,2.279 1.537,3.401c1.199,2.498 1.969,5.192 3.039,7.771c2.248,5.419 4.975,10.673 8.563,15.334c0.723,0.941 1.474,1.948 1.593,3.128c0.191,1.902 -1.137,2.842 -2.266,4.087c-1.188,1.312 -1.997,3.053 -2.952,4.546c-0.883,1.383 -1.919,2.719 -3.318,3.577c-4.936,3.029 -8.503,-2.973 -10.126,-6.819c-1.903,-4.508 -3.806,-9.017 -5.709,-13.525c-2.045,-4.843 -4.461,-9.583 -6.436,-14.386c-0.659,-1.604 -0.751,-3.376 -0.795,-5.109c-0.144,-5.607 0.116,-11.223 0.777,-16.792c0.2,-1.684 0.53,-8.183 3.281,-7.927c0.731,0.068 1.341,0.569 1.87,1.078c4.598,4.419 6.707,10.742 8.968,16.705c0.627,1.655 1.279,3.303 1.974,4.931" style="fill:#020202;fill-rule:nonzero;"/></g><path d="M680.633,163.422c0.011,0.005 0.022,0.01 0.034,0.015c1.603,0.652 3.321,0.79 4.769,1.82c1.408,1.002 2.388,2.821 1.879,4.473c-0.345,1.116 -1.275,1.935 -2.162,2.693c-1.214,1.035 -2.457,2.085 -3.934,2.686c-3.397,1.378 -7.232,0.13 -10.679,-1.12c-1.639,-0.593 -3.269,-1.231 -4.923,-1.782c-1.306,-0.435 -2.69,-0.506 -3.882,-1.297c-0.331,-0.22 -0.649,-0.484 -0.835,-0.836c-0.218,-0.409 -0.236,-0.892 -0.214,-1.354c0.122,-2.638 1.433,-5.197 3.502,-6.837c2.069,-1.64 4.86,-2.332 7.455,-1.849c1.233,0.229 2.405,0.705 3.566,1.179c1.808,0.736 3.615,1.473 5.424,2.209" style="fill:#ffe3de;fill-rule:nonzero;"/><path d="M629.014,97.157c-0.549,0.523 -1.135,1.076 -1.326,1.81c-0.192,0.741 0.058,1.518 0.324,2.236c1.33,3.589 3.175,7.055 5.893,9.75c2.718,2.695 6.389,4.564 10.216,4.58c-1.296,-4.147 -0.327,-8.929 2.481,-12.246c1.413,-1.668 3.284,-3.034 4.117,-5.055c0.532,-1.29 0.582,-2.722 0.601,-4.117c0.047,-3.462 -0.067,-7.009 -1.321,-10.236c-0.869,-2.239 -2.78,-5.305 -5.213,-6.124c-2.895,-0.973 -3.668,2.449 -4.696,4.485c-2.808,5.553 -6.568,10.626 -11.076,14.917" style="fill:#ffe3de;fill-rule:nonzero;"/><g opacity="0.2"><path d="M639.113,98.063c0.19,2.166 1.656,4.005 3.266,5.467c0.838,0.761 1.736,1.453 2.676,2.083c0.43,-0.828 0.943,-1.612 1.547,-2.325c0.539,-0.637 1.145,-1.23 1.734,-1.832l-6.452,-11.915c-0.825,2.903 -3.035,5.515 -2.771,8.522" style="fill:#020202;fill-rule:nonzero;"/></g><path d="M640.309,96.414c0.102,4.167 4.104,7.013 7.676,9.161c1.997,1.201 4.276,2.449 6.536,1.878c3.559,-0.9 5.232,-6.012 6.971,-8.819c0.253,-0.41 0.612,-0.874 1.091,-0.82c0.628,0.071 0.948,1.003 1.578,0.95c0.41,-0.035 0.641,-0.472 0.851,-0.827c1.154,-1.951 2.511,-3.855 3.747,-5.78c2.513,-3.919 5.044,-8.032 5.192,-12.828c0.138,-4.446 -1.933,-8.846 -5.247,-11.814c-3.314,-2.968 -7.778,-4.53 -12.227,-4.6c-4.445,-0.069 -9.018,1.393 -12.173,4.525c-3.156,3.133 -4.653,8.035 -3.205,12.239c0.449,1.303 1.161,2.476 1.781,3.699c1.007,1.987 0.697,2.348 -0.231,4.316c-1.264,2.681 -2.414,5.708 -2.34,8.72" style="fill:#ffe3de;fill-rule:nonzero;"/><path d="M659.245,88.842c0.298,-0.661 0.888,-1.081 1.615,-1.315c0.71,-0.214 1.628,-0.132 2.297,0.564c0.583,0.708 0.654,1.525 0.535,2.217c-0.065,0.344 -0.154,0.677 -0.279,0.993c-0.162,0.308 -0.311,0.61 -0.551,0.86l-0.065,-0.025c0.222,-0.589 0.342,-1.215 0.354,-1.843c0.012,-0.617 -0.105,-1.277 -0.512,-1.736c-0.408,-0.457 -1.092,-0.584 -1.696,-0.493c-0.31,0.042 -0.601,0.148 -0.885,0.291c-0.282,0.135 -0.559,0.294 -0.759,0.531l-0.054,-0.044Z" style="fill:#292640;fill-rule:nonzero;"/><path d="M660.459,84.014c0,0 5.464,-2.209 6.278,2.325l1.744,-1.085c0,0 -3.023,-6.471 -8.022,-1.24" style="fill:#292640;fill-rule:nonzero;"/><path d="M652.73,81.903c1.735,0.779 3.884,0.544 5.41,-0.591c1.526,-1.136 2.368,-3.127 2.12,-5.013c1.449,1.038 3.573,1.016 5,-0.054c0.258,0.733 0.978,1.226 1.731,1.419c0.752,0.193 1.543,0.135 2.318,0.076c-0.265,2.351 1.515,4.654 3.781,5.331c2.267,0.677 4.814,-0.106 6.588,-1.67c-0.588,0.042 -1.186,-0.081 -1.709,-0.353c1.495,-0.728 1.925,-2.647 1.955,-4.31c0.012,-0.624 -0.012,-1.268 -0.27,-1.836c-0.258,-0.568 -0.802,-1.047 -1.426,-1.053c0.794,-1.855 1.141,-3.991 0.476,-5.896c-0.665,-1.905 -2.518,-3.467 -4.533,-3.362c0.737,-1.152 0.061,-3.243 -0.935,-4.179c-0.997,-0.937 -2.43,-1.275 -3.798,-1.274c-1.525,0.002 -3.177,0.472 -4.044,1.726c-1.283,-2.005 -3.62,-3.241 -5.998,-3.362c-2.378,-0.122 -4.755,0.814 -6.549,2.379c-0.254,0.221 -0.529,0.467 -0.865,0.479c-0.225,0.008 -0.437,-0.093 -0.645,-0.177c-1.634,-0.667 -3.514,-0.443 -5.174,0.159c-5.135,1.862 -8.602,7.518 -7.932,12.938c0.228,1.842 0.876,3.633 0.883,5.489c0.006,2.011 -0.781,4.014 -2.155,5.483c0.846,0.87 1.824,1.612 2.891,2.19c0.244,0.132 0.517,0.26 0.789,0.205c0.265,-0.054 0.464,-0.268 0.641,-0.472c1.928,-2.21 3.647,-4.601 5.13,-7.13c1.331,0.897 2.662,1.795 3.992,2.692c-0.635,1.065 -1.271,2.129 -1.906,3.194c-0.181,0.301 -0.366,0.623 -0.359,0.974c0.02,0.902 1.224,1.344 1.445,2.219c0.472,-0.149 0.736,-0.755 0.523,-1.202c0.956,-0.324 1.354,-1.443 1.551,-2.432c0.198,-0.99 0.253,-2.001 1.074,-2.587" style="fill:#292640;fill-rule:nonzero;"/><path d="M649.621,83.079c0.156,-0.959 0.052,-2.009 -0.526,-2.791c-0.87,-1.177 -2.662,-1.42 -3.965,-0.755c-1.304,0.664 -2.128,2.053 -2.411,3.488c-0.227,1.148 -0.114,2.438 0.64,3.332c0.755,0.894 2.269,1.172 3.107,0.355l3.155,-3.629Z" style="fill:#ffe3de;fill-rule:nonzero;"/><g opacity="0.2"><path d="M646.795,83.575c0.353,-0.611 0.31,-1.296 -0.096,-1.531c-0.405,-0.234 -1.021,0.072 -1.373,0.683c-0.353,0.611 -0.31,1.296 0.095,1.53c0.406,0.235 1.021,-0.071 1.374,-0.682" style="fill:#020202;fill-rule:nonzero;"/></g><path d="M659.91,96.942c-0.578,-0.074 -1.175,-0.136 -1.737,0.02c-0.859,0.238 -1.517,0.962 -1.892,1.772c-0.024,0.051 -0.047,0.106 -0.041,0.163c0.015,0.146 0.205,0.2 0.35,0.179c0.145,-0.022 0.298,-0.081 0.433,-0.026c0.294,0.121 0.179,0.579 0.344,0.85c0.078,0.127 0.213,0.206 0.344,0.278c0.356,0.198 0.712,0.396 1.069,0.594c0.744,0.414 1.502,0.833 2.334,1.015c0.151,0.033 0.307,0.058 0.46,0.037c0.451,-0.064 0.746,-0.501 0.926,-0.92c0.306,-0.711 0.746,-2.167 0.336,-2.923c-0.461,-0.851 -2.089,-0.932 -2.926,-1.039" style="fill:#292640;fill-rule:nonzero;"/><path d="M652.384,313.66c1.407,-0.986 3.1,-1.561 4.817,-1.632" style="fill:none;fill-rule:nonzero;stroke:#292640;stroke-width:0.93px;"/><path d="M655.547,316.338c0.456,-0.62 1.168,-1.014 1.908,-1.225c0.741,-0.211 1.517,-0.256 2.285,-0.3" style="fill:none;fill-rule:nonzero;stroke:#292640;stroke-width:0.93px;"/><path d="M717.784,288.055c0.406,-0.726 1.014,-1.336 1.736,-1.746" style="fill:none;fill-rule:nonzero;stroke:#292640;stroke-width:0.93px;"/><path d="M721.108,289.128c0.252,-0.613 0.651,-1.166 1.157,-1.595" style="fill:none;fill-rule:nonzero;stroke:#292640;stroke-width:0.93px;"/><path d="M607.609,115.2c-5.397,8.833 -7.876,19.312 -7.666,29.66c0.093,4.581 0.695,9.141 0.783,13.722c0.195,10.189 -2.145,20.23 -4.194,30.212c-0.677,3.298 -0.993,7.456 1.826,9.297c1.373,0.897 3.117,0.928 4.757,0.93c7.913,0.009 15.827,0.016 23.74,0.024c5.016,0.006 14.417,0.948 18.74,-2.138c5.724,-4.087 0.377,-14.346 -0.079,-19.979c-0.448,-5.54 0.189,-11.096 1.194,-16.542c1.287,-6.978 3.175,-13.834 4.273,-20.847c0.487,-3.113 0.351,-6.5 1.335,-9.455c1.083,-3.255 0.488,-7.235 0.189,-10.573c-0.199,-2.233 -0.415,-4.524 -1.405,-6.535c-1.138,-2.308 -3.156,-3.972 -5.077,-5.607c-1.862,-1.584 -3.431,-3.417 -5.367,-4.864c-3.804,-2.846 -9.169,-6.703 -14.151,-4.584c-7.813,3.323 -14.531,10.133 -18.898,17.279" style="fill:#fca50d;fill-rule:nonzero;"/><path d="M630.907,94.827c-1.729,1.053 -2.731,3.026 -3.077,5.021c-2.007,11.59 10.346,19.351 10.886,30.522" style="fill:none;fill-rule:nonzero;stroke:#e2574c;stroke-width:1.86px;"/><path d="M639.186,126.416c2.213,-1.036 4.919,-1.324 7.06,-0.146c2.776,1.526 3.831,4.948 4.352,8.072c1.779,10.668 0.258,21.565 -0.403,32.359c-0.383,6.235 -0.428,12.736 2.17,18.417c7.69,16.816 31.351,13.423 44.223,24.3c-7.799,1.693 -15.072,5.187 -22.261,8.653c-2.17,1.046 -4.34,2.092 -6.51,3.137c-7.082,3.414 -14.228,6.867 -20.408,11.725c-4.208,-5.279 -5.62,-10.983 -10.929,-15.424c-4.43,-3.707 -9.661,-6.755 -12.718,-11.825c-2.781,-4.613 -3.281,-10.201 -3.713,-15.57c-0.186,-2.315 -0.373,-4.629 -0.559,-6.943c-0.071,-0.885 -0.142,-1.777 -0.047,-2.661c0.215,-1.977 1.24,-3.758 2.188,-5.507c4.736,-8.735 8.03,-18.248 9.739,-28.035c1.313,-7.518 -0.629,-16.595 7.816,-20.552" style="fill:#e2574c;fill-rule:nonzero;stroke:#e2574c;stroke-width:1px;stroke-linecap:butt;stroke-linejoin:round;stroke-miterlimit:2;"/><g opacity="0.2"><path d="M708.643,200.689l0,101.908" style="fill:none;fill-rule:nonzero;stroke:#020202;stroke-width:4.65px;stroke-linecap:butt;"/></g><path d="M756.889,199.708c0,2.78 -21.541,5.034 -48.111,5.034c-26.573,0 -48.114,-2.254 -48.114,-5.034l0,-3.073l96.225,0l0,3.073Z" style="fill:#c4c4c4;fill-rule:nonzero;"/><g opacity="0.1"><path d="M756.889,199.708c0,2.78 -21.541,5.034 -48.111,5.034c-26.573,0 -48.114,-2.254 -48.114,-5.034l0,-3.073l96.225,0l0,3.073Z" style="fill:#020202;fill-rule:nonzero;"/></g><path d="M756.889,196.635c0,2.78 -21.541,5.034 -48.111,5.034c-26.573,0 -48.114,-2.254 -48.114,-5.034c0,-2.779 21.541,-5.033 48.114,-5.033c26.57,0 48.111,2.254 48.111,5.033" style="fill:#c4c4c4;fill-rule:nonzero;"/><g><path d="M702.002,149.844l0,-3.566c0,-1.991 -1.614,-3.605 -3.605,-3.605l-17.691,0c-1.991,0 -3.605,1.614 -3.605,3.605l0,46.39c0,1.991 1.614,3.605 3.605,3.605l61.014,0c1.991,0 3.606,-1.614 3.606,-3.605l0,-35.613c0,-1.992 -1.615,-3.606 -3.606,-3.606l-36.113,0c-1.991,0 -3.605,-1.614 -3.605,-3.605Z" style="fill:#393d3d;fill-rule:nonzero;"/><path d="M701.444,167.672l-0.098,-52.305c-0.001,-0.256 0.206,-0.463 0.461,-0.463l41.201,-0.078c0.256,0 0.463,0.206 0.463,0.461l0.099,52.306c0,0.255 -0.206,0.462 -0.461,0.463l-41.202,0.077c-0.255,0.001 -0.462,-0.206 -0.463,-0.461Z" style="fill:#f7f7f9;fill-rule:nonzero;"/><path d="M738.082,133.555l-27.561,0.052l-0.001,-0.681l27.56,-0.051l0.002,0.68Z" style="fill:#e6e6e7;fill-rule:nonzero;"/><path d="M738.088,137.143l-32.383,0.061l-0.001,-0.681l32.383,-0.061l0.001,0.681Z" style="fill:#e6e6e7;fill-rule:nonzero;"/><path d="M738.096,141.224l-32.383,0.061l-0.001,-0.68l32.383,-0.061l0.001,0.68Z" style="fill:#e6e6e7;fill-rule:nonzero;"/><path d="M738.105,145.684l-32.384,0.061l-0.001,-0.68l32.383,-0.061l0.002,0.68Z" style="fill:#e6e6e7;fill-rule:nonzero;"/><path d="M726.119,154.27l-20.382,0.038l-0.001,-0.68l20.382,-0.039l0.001,0.681Z" style="fill:#e6e6e7;fill-rule:nonzero;"/><path d="M726.111,150.202l-20.381,0.039l-0.001,-0.681l20.381,-0.038l0.001,0.68Z" style="fill:#e6e6e7;fill-rule:nonzero;"/><path d="M739.035,129.563l-33.537,0.063l-0.02,-10.535l33.537,-0.063l0.02,10.535Z" style="fill:#8c77a3;fill-rule:nonzero;"/><path d="M737.819,156.168l-10.068,0.019l-0.019,-9.823l10.068,-0.019l0.019,9.823Z" style="fill:#9ebac6;fill-rule:nonzero;"/><path d="M698.56,149.844l0,-3.566c0,-1.991 -1.614,-3.605 -3.605,-3.605l-17.69,0c-1.991,0 -3.605,1.614 -3.605,3.605l0,46.39c0,1.991 1.614,3.605 3.605,3.605l61.014,0c1.991,0 3.605,-1.614 3.605,-3.605l0,-35.613c0,-1.992 -1.614,-3.606 -3.605,-3.606l-36.113,0c-1.992,0 -3.606,-1.614 -3.606,-3.605Z" style="fill:#656768;fill-rule:nonzero;"/></g><path d="M634.603,159.326c0.896,1.824 2.013,3.583 3.405,5.259c1.283,1.546 2.404,3.584 1.758,5.486c-0.719,2.115 -3.192,2.971 -4.83,4.49c-3.111,2.886 -3.445,8.462 -7.362,10.095c-3.006,1.254 -6.526,-0.773 -8.247,-3.539c-1.721,-2.765 -2.181,-6.098 -3.017,-9.245c-1.705,-6.412 -2.898,-12.872 -4.662,-19.336c-1.307,-4.791 -3.134,-9.727 -3.796,-14.659c-0.557,-4.148 0.724,-9.173 2.268,-13.086c1.561,-3.96 4.226,-7.632 7.998,-9.602c1.602,-0.837 3.352,-1.345 5.088,-1.847c1.147,-0.332 2.324,-0.668 3.516,-0.585c5.696,0.395 4.666,10.262 4.671,14.056c0.013,10.917 -1.622,22.67 3.21,32.513" style="fill:#fca50d;fill-rule:nonzero;"/><path d="M645.273,173.187c7.29,3.348 14.764,6.745 22.756,7.434c5.488,0.472 11.169,-0.337 16.413,1.347c1.348,0.433 2.769,1.155 3.26,2.482c-3.129,0.708 -6.386,0.411 -9.579,0.111c3.264,2.641 7.511,4.038 11.707,3.853c0.934,-0.041 1.905,-0.154 2.781,0.177c0.875,0.331 1.603,1.293 1.301,2.179c-0.781,0.552 -1.651,0.977 -2.565,1.253c0.477,0.591 0.266,1.519 -0.261,2.064c-0.529,0.545 -1.283,0.796 -2.01,1.013c-3.633,1.082 -7.605,1.764 -11.164,0.458c-1.524,-0.559 -2.895,-1.457 -4.341,-2.192c-8.22,-4.182 -18.016,-2.859 -27.18,-3.888c-4.986,-0.561 -9.888,-1.85 -14.504,-3.814c-3.229,-1.375 -6.694,-3.602 -7.093,-7.088c-0.319,-2.772 1.548,-5.431 3.941,-6.866c2.011,-1.206 5.778,-2.596 8.168,-2.288c2.665,0.344 5.921,2.64 8.37,3.765" style="fill:#ffe3de;fill-rule:nonzero;"/><path d="M646.317,107.063c1.402,6.834 1.366,13.961 -0.106,20.781" style="fill:none;fill-rule:nonzero;stroke:#e2574c;stroke-width:1.86px;"/><path d="M621.149,191.441c-3.861,-1.769 -7.624,-3.754 -11.263,-5.944c-1.513,-0.91 -3.011,-1.862 -4.341,-3.022c-3.083,-2.689 -5.109,-6.359 -7.072,-9.948" style="fill:none;fill-rule:nonzero;stroke:#e2574c;stroke-width:1.86px;"/></g></g><path d="M97.576,113.877l111.364,0l59.028,58.798l0,137.808c0,7.241 -5.872,13.107 -13.107,13.107l-157.285,0c-7.235,0 -13.107,-5.866 -13.107,-13.107l0,-183.499c0,-7.242 5.873,-13.107 13.107,-13.107Z" style="fill:#e2574c;fill-rule:nonzero;"/><path d="M267.779,172.858l-45.685,0c-7.235,0 -13.107,-5.871 -13.107,-13.107l0,-45.743l58.792,58.85Z" style="fill:#b53629;fill-rule:nonzero;"/><text x="115.023px" y="248.153px" style="font-family:'Kent4FPrinted', 'Kent 4F';font-size:64px;fill:#fff;">PDF</text><text x="284.739px" y="248.153px" style="font-family:'Kent4FPrinted', 'Kent 4F';font-size:64px;">Maker</text><g id="rocket"><path d="M333.304,119.543c-6.118,1.194 -21.143,5.071 -29.925,15.455c-0.277,0.328 -0.367,0.779 -0.242,1.189c0.077,0.239 0.223,0.446 0.409,0.598c0.135,0.112 0.299,0.192 0.474,0.241l15.331,4.035c0.029,-0.045 0.045,-0.097 0.077,-0.138l13.876,-21.38Z" style="fill-rule:nonzero;"/><path d="M356.264,177.633c8.26,-10.789 8.953,-26.257 8.871,-32.322l-18.232,18.008c-0.026,0.032 -0.05,0.044 -0.08,0.073l7.099,14.298c0.08,0.164 0.198,0.308 0.332,0.418c0.015,0.023 0.028,0.033 0.034,0.035c0.539,0.438 1.335,0.357 1.771,-0.177c0.094,-0.105 0.155,-0.22 0.205,-0.333Z" style="fill-rule:nonzero;"/><path d="M383.937,118.585c3.855,-6.732 6.722,-17.415 4.57,-24.698c-0.054,-0.17 -0.081,-0.351 -0.132,-0.513c-0.141,-0.413 -0.324,-0.782 -0.499,-1.165c-0.105,-0.234 -0.189,-0.499 -0.303,-0.725c-0.135,-0.247 -0.307,-0.455 -0.451,-0.691c-0.203,-0.327 -0.396,-0.673 -0.632,-0.973c-0.112,-0.137 -0.26,-0.247 -0.376,-0.375c-0.322,-0.362 -0.645,-0.724 -1.026,-1.034c-0.275,-0.223 -0.582,-0.385 -0.883,-0.577c-0.26,-0.166 -0.505,-0.365 -0.781,-0.513c-0.436,-0.218 -0.9,-0.38 -1.372,-0.542c-0.161,-0.055 -0.31,-0.139 -0.476,-0.188c-0.386,-0.111 -0.786,-0.163 -1.182,-0.237c-0.283,-0.052 -0.546,-0.135 -0.834,-0.168c-0.172,-0.022 -0.356,-0.011 -0.537,-0.027c-5.455,-0.458 -12.111,1.982 -17.601,5.344c-0.921,0.557 -1.791,1.155 -2.629,1.76c-1.755,1.258 -3.332,2.57 -4.602,3.88c-0.472,0.481 -0.899,0.957 -1.285,1.43l-29.293,45.14c-0.577,0.813 -0.422,1.933 0.344,2.561l16.797,13.683c0.775,0.633 1.903,0.554 2.581,-0.175l38.375,-37.897c0.756,-0.929 1.502,-2.044 2.227,-3.3Zm-27.084,4.47c-3.154,-2.571 -3.63,-7.212 -1.058,-10.369c2.571,-3.155 7.214,-3.629 10.375,-1.05c3.149,2.569 3.626,7.21 1.056,10.365c-2.575,3.15 -7.214,3.62 -10.373,1.054Z" style="fill-rule:nonzero;"/><path d="M331.507,162.62c-4.044,2.596 -7.715,4.167 -9.263,2.901c-1.553,-1.266 -0.761,-5.173 0.966,-9.664c-2.39,-0.588 -4.74,0.02 -6.807,2.553c-3.449,4.233 -14.075,23.656 -10.214,26.809c3.862,3.142 20.749,-11.18 24.196,-15.413c2.063,-2.535 2.174,-4.963 1.122,-7.186Z" style="fill-rule:nonzero;"/></g></svg>